<svg width="26" height="25" viewBox="0 0 26 25" fill="none" xmlns="http://www.w3.org/2000/svg">
<path d="M0.917969 0H25.918V25H0.917969V0Z" fill="white" fill-opacity="0.01"/>
<path d="M13.418 22.9166C13.418 22.9166 21.2305 16.6666 21.2305 9.89575C21.2305 5.58101 17.7327 2.08325 13.418 2.08325C9.10323 2.08325 5.60547 5.58101 5.60547 9.89575C5.60547 16.6666 13.418 22.9166 13.418 22.9166Z" fill="black" stroke="white" stroke-linejoin="round"/>
<path d="M13.418 13.0208C15.1439 13.0208 16.543 11.6216 16.543 9.89575C16.543 8.16987 15.1439 6.77075 13.418 6.77075C11.6921 6.77075 10.293 8.16987 10.293 9.89575C10.293 11.6216 11.6921 13.0208 13.418 13.0208Z" fill="black" stroke="white" stroke-linejoin="round"/>
</svg>
