<svg width="26" height="25" viewBox="0 0 26 25" fill="none" xmlns="http://www.w3.org/2000/svg">
<path d="M0.917969 0H25.918V25H0.917969V0Z" fill="white" fill-opacity="0.01"/>
<path d="M9.76917 4.00293C10.1476 4.00293 10.4962 4.20815 10.6799 4.539L11.9541 6.83422C12.1209 7.13474 12.1288 7.49823 11.975 7.80567L10.7475 10.2607C10.7475 10.2607 11.1032 12.0896 12.592 13.5783C14.0808 15.0671 15.9035 15.4167 15.9035 15.4167L18.3581 14.1894C18.6658 14.0355 19.0295 14.0435 19.3302 14.2106L21.6319 15.4903C21.9625 15.6741 22.1674 16.0225 22.1674 16.4007V19.0432C22.1674 20.3888 20.9174 21.3608 19.6425 20.9305C17.0237 20.0469 12.9588 18.3645 10.3823 15.788C7.80584 13.2116 6.1234 9.14661 5.23979 6.52791C4.80957 5.25286 5.78149 4.00293 7.12714 4.00293H9.76917Z" fill="black" stroke="white" stroke-linejoin="round"/>
</svg>
